<svg viewBox="0 0 48 48" xmlns="http://www.w3.org/2000/svg" xmlns:xlink="http://www.w3.org/1999/xlink" width="48.000000" height="48.000000" fill="none" customFrame="url(#clipPath_26)">
	<defs>
		<clipPath id="clipPath_26">
			<rect width="48.000000" height="48.000000" x="0.000000" y="0.000000" rx="12.000000" fill="rgb(255,255,255)" />
		</clipPath>
		<clipPath id="clipPath_27">
			<rect width="30.399998" height="30.399998" x="8.799805" y="8.800781" fill="rgb(255,255,255)" />
		</clipPath>
	</defs>
	<rect id="OpenAI" width="48.000000" height="48.000000" x="0.000000" y="0.000000" rx="12.000000" fill="rgb(255,255,255)" />
	<g id="openai (1) 1" clip-path="url(#clipPath_27)" customFrame="url(#clipPath_27)">
		<rect id="openai (1) 1" width="30.399998" height="30.399998" x="8.799805" y="8.800781" />
		<path id="矢量 8246" d="M20.4595 19.7676L20.4595 16.9049C20.4595 16.6642 20.5507 16.4831 20.7609 16.3628L26.5154 13.0492C27.2995 12.597 28.233 12.3867 29.1969 12.3867C32.812 12.3867 35.1021 15.1886 35.1021 18.1703C35.1021 18.3818 35.1021 18.6225 35.0717 18.8632L29.1057 15.3684C28.7443 15.1384 28.3829 15.1384 28.0215 15.3684L20.4595 19.7676L20.4595 19.7676ZM33.8975 30.9143L33.8975 24.0768C33.8975 23.655 33.7164 23.3548 33.3541 23.1432L25.7921 18.7441L28.2621 17.328C28.4631 17.1957 28.6641 17.1957 28.8651 17.328L34.6195 20.6428C36.2776 21.6055 37.3923 23.655 37.3923 25.6437C37.3923 27.9338 36.0369 30.0428 33.8963 30.9168L33.8975 30.9143ZM18.6823 24.8913L16.2123 23.4447C16.0008 23.3244 15.9096 23.1433 15.9096 22.9026L15.9096 16.2729C15.9096 13.0492 18.3796 10.6083 21.7249 10.6083C22.9915 10.6083 24.1657 11.0301 25.1601 11.7838L19.2245 15.219C18.8635 15.4292 18.6823 15.7307 18.6823 16.1525L18.6823 24.89L18.6823 24.8913ZM23.9998 27.9629L20.4595 25.9743L20.4595 21.7563L23.9998 19.7676L27.5401 21.7563L27.5401 25.9743L23.9998 27.9629ZM26.2747 37.1209C25.0081 37.1209 23.8339 36.7004 22.8395 35.9467L28.7751 32.5115C29.1361 32.3013 29.3173 31.9998 29.3173 31.578L29.3173 22.8405L31.8177 24.2871C32.0292 24.4074 32.1191 24.5885 32.1191 24.8292L32.1191 31.4577C32.1191 34.6813 29.6187 37.1222 26.2747 37.1222L26.2747 37.1209ZM19.1345 30.4038L13.3788 27.0889C11.722 26.125 10.6073 24.0768 10.6073 22.0881C10.6033 20.9324 10.9225 19.8741 11.5648 18.9133C12.2071 17.9525 13.063 17.2531 14.1325 16.815L14.1325 23.6841C14.1325 24.1059 14.3136 24.4074 14.6746 24.6189L22.2075 28.9877L19.7375 30.4038C19.5365 30.5365 19.3355 30.5365 19.1345 30.4038L19.1345 30.4038ZM18.8027 35.3438C15.3979 35.3438 12.8975 32.7839 12.8975 29.6197C12.8975 29.3791 12.9279 29.1384 12.957 28.8977L18.8926 32.3304C19.2549 32.5419 19.6159 32.5419 19.9769 32.3304L27.5389 27.9629L27.5389 30.8256C27.5389 31.0663 27.4502 31.2474 27.2387 31.3677L21.4842 34.6813C20.7001 35.1335 19.7666 35.3438 18.8027 35.3438L18.8027 35.3438ZM26.2747 38.9285C28.0642 38.9286 29.6522 38.3629 31.0385 37.2314C32.4249 36.0998 33.2972 34.6574 33.6556 32.9042C37.03 32.0302 39.1998 28.8648 39.1998 25.6424C39.1998 23.5334 38.2967 21.4852 36.669 20.0082C36.8197 19.3749 36.9097 18.7428 36.9097 18.1108C36.9097 13.8028 33.4149 10.5779 29.3781 10.5779C28.5649 10.5779 27.7821 10.6982 26.9967 10.9706C25.5346 9.53138 23.7777 8.80812 21.7261 8.80078C19.9364 8.8007 18.3484 9.36656 16.962 10.4984C15.5756 11.6302 14.7034 13.0728 14.3453 14.8263C10.9696 15.7003 8.7998 18.8644 8.7998 22.0881C8.7998 24.1984 9.70294 26.2466 11.3306 27.7223C11.1799 28.3556 11.0899 28.9889 11.0899 29.621C11.0899 33.9289 14.5847 37.1526 18.6215 37.1526C19.4347 37.1526 20.2175 37.0322 21.0029 36.7612C22.4652 38.201 24.2225 38.9243 26.2747 38.931L26.2747 38.9285Z" fill="rgb(0,0,0)" fill-rule="evenodd" />
	</g>
</svg>
